<svg xmlns="http://www.w3.org/2000/svg" viewBox="0 0 512 512" role="img" aria-label="Maison Lila"><defs><linearGradient id="bg" x1="0" y1="0" x2="1" y2="1"><stop offset="0" stop-color="#b18a98"/><stop offset="1" stop-color="#806170"/></linearGradient><linearGradient id="shine" x1="0" y1="0" x2="1" y2="1"><stop offset="0" stop-color="#fff" stop-opacity=".95"/><stop offset="1" stop-color="#f1dfe5" stop-opacity=".82"/></linearGradient></defs><rect width="512" height="512" rx="128" fill="url(#bg)"/><circle cx="390" cy="110" r="118" fill="#fff" opacity=".08"/><circle cx="132" cy="408" r="120" fill="#fff" opacity=".07"/><path fill="url(#shine)" d="M143 242.5 256 151l113 91.5v121.2c0 13.4-10.9 24.3-24.3 24.3h-56.2v-90.5h-65V388h-56.2c-13.4 0-24.3-10.9-24.3-24.3V242.5Z"/><path fill="#fff" d="M118 247.4c-8.4 0-15.2-6.8-15.2-15.2 0-4.7 2.1-9.1 5.8-12L246.4 109c5.6-4.5 13.6-4.5 19.2 0l137.8 111.2c6.5 5.3 7.5 14.8 2.2 21.3-5.3 6.5-14.8 7.5-21.3 2.2L256 140.2 127.6 243.7c-2.8 2.4-6.2 3.7-9.6 3.7Z" opacity=".95"/><text x="256" y="252" text-anchor="middle" fill="#806170" font-family="Georgia, serif" font-size="62" font-weight="700">ML</text></svg>
